<svg width="69" height="69" viewBox="0 0 69 69" fill="none" xmlns="http://www.w3.org/2000/svg">
<circle cx="34.5" cy="34.5" r="34.5" fill="#D9D9D9"/>
<path d="M54.8821 47.1687C54.8821 48.2349 54.4585 49.2575 53.7046 50.0115C52.9506 50.7654 51.928 51.189 50.8618 51.189H18.6992C17.6329 51.189 16.6103 50.7654 15.8564 50.0115C15.1024 49.2575 14.6789 48.2349 14.6789 47.1687V19.0264C14.6789 17.9602 15.1024 16.9376 15.8564 16.1836C16.6103 15.4297 17.6329 15.0061 18.6992 15.0061H28.75L32.7703 21.0366H50.8618C51.928 21.0366 52.9506 21.4602 53.7046 22.2141C54.4585 22.9681 54.8821 23.9907 54.8821 25.0569V47.1687Z" stroke="black" stroke-width="3" stroke-linecap="round" stroke-linejoin="round"/>
<path d="M34.7805 31.0874V43.1484" stroke="black" stroke-width="3" stroke-linecap="round" stroke-linejoin="round"/>
<path d="M28.75 37.1178H40.811" stroke="black" stroke-width="3" stroke-linecap="round" stroke-linejoin="round"/>
</svg>
