<svg width="62" height="62" viewBox="0 0 62 62" fill="none" xmlns="http://www.w3.org/2000/svg">
<circle cx="31" cy="31" r="31" fill="#D9D9D9"/>
<path d="M48.3902 49.3627V44.9046C48.3902 42.5398 47.4742 40.2719 45.8435 38.5998C44.2128 36.9277 42.0012 35.9883 39.6951 35.9883H22.3049C19.9988 35.9883 17.7871 36.9277 16.1565 38.5998C14.5258 40.2719 13.6098 42.5398 13.6098 44.9046V49.3627" stroke="black" stroke-width="3" stroke-linecap="round" stroke-linejoin="round"/>
<path d="M31 27.2434C35.8718 27.2434 39.8211 23.2131 39.8211 18.2414C39.8211 13.2697 35.8718 9.23938 31 9.23938C26.1282 9.23938 22.1789 13.2697 22.1789 18.2414C22.1789 23.2131 26.1282 27.2434 31 27.2434Z" stroke="black" stroke-width="3" stroke-linecap="round" stroke-linejoin="round"/>
</svg>
